<mxfile host="app.diagrams.net" modified="2020-07-22T10:42:20.451Z" agent="5.0 (Windows NT 10.0; Win64; x64) AppleWebKit/537.36 (KHTML, like Gecko) Chrome/84.0.4147.89 Safari/537.36" etag="eHSaCM1vss9EXP-us6Lz" version="13.5.0" type="github">
  <diagram id="LYvnLIcDRPvLys48fhbC" name="Page-1">
    <mxGraphModel dx="2249" dy="762" grid="1" gridSize="10" guides="1" tooltips="1" connect="1" arrows="1" fold="1" page="1" pageScale="1" pageWidth="827" pageHeight="1169" math="0" shadow="0">
      <root>
        <mxCell id="0" />
        <mxCell id="1" parent="0" />
        <mxCell id="mByM-L_YtEdj-Pzh2EhQ-19" value="" style="rounded=0;whiteSpace=wrap;html=1;align=center;fillColor=#d5e8d4;strokeColor=#82b366;" vertex="1" parent="1">
          <mxGeometry x="-430" y="1360" width="1230" height="340" as="geometry" />
        </mxCell>
        <mxCell id="mByM-L_YtEdj-Pzh2EhQ-14" value="应用" style="rounded=0;whiteSpace=wrap;html=1;fillColor=#f5f5f5;strokeColor=#666666;fontColor=#333333;verticalAlign=top;align=left;" vertex="1" parent="1">
          <mxGeometry x="260" y="530" width="540" height="790" as="geometry" />
        </mxCell>
        <mxCell id="5PHVH8C7VnvAZDS9d-Uz-40" value="矩阵" style="html=1;align=left;verticalAlign=top;fillColor=#e1d5e7;strokeColor=#9673a6;" parent="1" vertex="1">
          <mxGeometry x="-430" y="530" width="660" height="790" as="geometry" />
        </mxCell>
        <mxCell id="5PHVH8C7VnvAZDS9d-Uz-39" value="行列式" style="html=1;fillColor=#ffe6cc;strokeColor=#d79b00;verticalAlign=top;align=left;" parent="1" vertex="1">
          <mxGeometry x="-170" y="110" width="980" height="400" as="geometry" />
        </mxCell>
        <mxCell id="5PHVH8C7VnvAZDS9d-Uz-3" style="edgeStyle=orthogonalEdgeStyle;rounded=0;orthogonalLoop=1;jettySize=auto;html=1;entryX=0.5;entryY=0;entryDx=0;entryDy=0;dashed=1;exitX=0.5;exitY=1;exitDx=0;exitDy=0;" parent="1" source="5PHVH8C7VnvAZDS9d-Uz-2" target="5PHVH8C7VnvAZDS9d-Uz-1" edge="1">
          <mxGeometry relative="1" as="geometry" />
        </mxCell>
        <mxCell id="5PHVH8C7VnvAZDS9d-Uz-1" value="行列式" style="html=1;fillColor=#f8cecc;strokeColor=#b85450;" parent="1" vertex="1">
          <mxGeometry x="160" y="160" width="110" height="50" as="geometry" />
        </mxCell>
        <mxCell id="5PHVH8C7VnvAZDS9d-Uz-2" value="线性方程组求解" style="html=1;" parent="1" vertex="1">
          <mxGeometry x="260" y="40" width="110" height="50" as="geometry" />
        </mxCell>
        <mxCell id="5PHVH8C7VnvAZDS9d-Uz-5" style="edgeStyle=orthogonalEdgeStyle;rounded=0;orthogonalLoop=1;jettySize=auto;html=1;entryX=0;entryY=0.5;entryDx=0;entryDy=0;" parent="1" source="5PHVH8C7VnvAZDS9d-Uz-4" target="5PHVH8C7VnvAZDS9d-Uz-1" edge="1">
          <mxGeometry relative="1" as="geometry">
            <Array as="points">
              <mxPoint x="95" y="185" />
            </Array>
          </mxGeometry>
        </mxCell>
        <mxCell id="5PHVH8C7VnvAZDS9d-Uz-4" value="高阶行列式" style="html=1;" parent="1" vertex="1">
          <mxGeometry x="40" y="270" width="110" height="50" as="geometry" />
        </mxCell>
        <mxCell id="5PHVH8C7VnvAZDS9d-Uz-7" style="edgeStyle=orthogonalEdgeStyle;rounded=0;orthogonalLoop=1;jettySize=auto;html=1;entryX=0.5;entryY=1;entryDx=0;entryDy=0;" parent="1" source="5PHVH8C7VnvAZDS9d-Uz-6" target="5PHVH8C7VnvAZDS9d-Uz-4" edge="1">
          <mxGeometry relative="1" as="geometry" />
        </mxCell>
        <mxCell id="5PHVH8C7VnvAZDS9d-Uz-6" value="代数余子式:任意一行即可" style="html=1;" parent="1" vertex="1">
          <mxGeometry x="15" y="440" width="160" height="50" as="geometry" />
        </mxCell>
        <mxCell id="5PHVH8C7VnvAZDS9d-Uz-9" style="edgeStyle=orthogonalEdgeStyle;rounded=0;orthogonalLoop=1;jettySize=auto;html=1;entryX=0.75;entryY=1;entryDx=0;entryDy=0;" parent="1" source="5PHVH8C7VnvAZDS9d-Uz-8" target="5PHVH8C7VnvAZDS9d-Uz-1" edge="1">
          <mxGeometry relative="1" as="geometry" />
        </mxCell>
        <mxCell id="5PHVH8C7VnvAZDS9d-Uz-8" value="对角行列式" style="html=1;" parent="1" vertex="1">
          <mxGeometry x="304" y="270" width="110" height="50" as="geometry" />
        </mxCell>
        <mxCell id="5PHVH8C7VnvAZDS9d-Uz-11" style="edgeStyle=orthogonalEdgeStyle;rounded=0;orthogonalLoop=1;jettySize=auto;html=1;entryX=1;entryY=0.5;entryDx=0;entryDy=0;" parent="1" source="5PHVH8C7VnvAZDS9d-Uz-10" target="5PHVH8C7VnvAZDS9d-Uz-1" edge="1">
          <mxGeometry relative="1" as="geometry" />
        </mxCell>
        <mxCell id="5PHVH8C7VnvAZDS9d-Uz-10" value="转置行列式" style="html=1;" parent="1" vertex="1">
          <mxGeometry x="400" y="160" width="110" height="50" as="geometry" />
        </mxCell>
        <mxCell id="5PHVH8C7VnvAZDS9d-Uz-13" style="edgeStyle=orthogonalEdgeStyle;rounded=0;orthogonalLoop=1;jettySize=auto;html=1;entryX=0.5;entryY=1;entryDx=0;entryDy=0;" parent="1" source="5PHVH8C7VnvAZDS9d-Uz-12" target="5PHVH8C7VnvAZDS9d-Uz-10" edge="1">
          <mxGeometry relative="1" as="geometry" />
        </mxCell>
        <mxCell id="5PHVH8C7VnvAZDS9d-Uz-14" style="edgeStyle=orthogonalEdgeStyle;rounded=0;orthogonalLoop=1;jettySize=auto;html=1;" parent="1" source="5PHVH8C7VnvAZDS9d-Uz-12" target="5PHVH8C7VnvAZDS9d-Uz-8" edge="1">
          <mxGeometry relative="1" as="geometry" />
        </mxCell>
        <mxCell id="5PHVH8C7VnvAZDS9d-Uz-12" value="利用三角化计算行列式" style="html=1;" parent="1" vertex="1">
          <mxGeometry x="450" y="350" width="140" height="50" as="geometry" />
        </mxCell>
        <mxCell id="5PHVH8C7VnvAZDS9d-Uz-16" style="edgeStyle=orthogonalEdgeStyle;rounded=0;orthogonalLoop=1;jettySize=auto;html=1;entryX=1;entryY=0.5;entryDx=0;entryDy=0;" parent="1" source="5PHVH8C7VnvAZDS9d-Uz-15" target="5PHVH8C7VnvAZDS9d-Uz-10" edge="1">
          <mxGeometry relative="1" as="geometry" />
        </mxCell>
        <mxCell id="5PHVH8C7VnvAZDS9d-Uz-15" value="降阶法" style="html=1;" parent="1" vertex="1">
          <mxGeometry x="590" y="240" width="110" height="50" as="geometry" />
        </mxCell>
        <mxCell id="5PHVH8C7VnvAZDS9d-Uz-18" style="edgeStyle=orthogonalEdgeStyle;rounded=0;orthogonalLoop=1;jettySize=auto;html=1;entryX=0.5;entryY=1;entryDx=0;entryDy=0;" parent="1" source="5PHVH8C7VnvAZDS9d-Uz-17" target="5PHVH8C7VnvAZDS9d-Uz-1" edge="1">
          <mxGeometry relative="1" as="geometry" />
        </mxCell>
        <mxCell id="5PHVH8C7VnvAZDS9d-Uz-22" style="edgeStyle=orthogonalEdgeStyle;rounded=0;orthogonalLoop=1;jettySize=auto;html=1;entryX=0;entryY=0.25;entryDx=0;entryDy=0;exitX=1;exitY=0.5;exitDx=0;exitDy=0;" parent="1" source="5PHVH8C7VnvAZDS9d-Uz-17" target="5PHVH8C7VnvAZDS9d-Uz-33" edge="1">
          <mxGeometry relative="1" as="geometry">
            <Array as="points">
              <mxPoint x="310" y="365" />
              <mxPoint x="310" y="430" />
              <mxPoint x="475" y="430" />
              <mxPoint x="475" y="453" />
            </Array>
          </mxGeometry>
        </mxCell>
        <mxCell id="5PHVH8C7VnvAZDS9d-Uz-17" value="克莱姆法则" style="html=1;" parent="1" vertex="1">
          <mxGeometry x="160" y="340" width="110" height="50" as="geometry" />
        </mxCell>
        <mxCell id="5PHVH8C7VnvAZDS9d-Uz-27" style="edgeStyle=orthogonalEdgeStyle;rounded=0;orthogonalLoop=1;jettySize=auto;html=1;entryX=0.5;entryY=0;entryDx=0;entryDy=0;" parent="1" source="5PHVH8C7VnvAZDS9d-Uz-23" target="5PHVH8C7VnvAZDS9d-Uz-26" edge="1">
          <mxGeometry relative="1" as="geometry" />
        </mxCell>
        <mxCell id="5PHVH8C7VnvAZDS9d-Uz-42" style="edgeStyle=orthogonalEdgeStyle;rounded=0;orthogonalLoop=1;jettySize=auto;html=1;entryX=0.5;entryY=1;entryDx=0;entryDy=0;" parent="1" source="5PHVH8C7VnvAZDS9d-Uz-23" target="5PHVH8C7VnvAZDS9d-Uz-41" edge="1">
          <mxGeometry relative="1" as="geometry" />
        </mxCell>
        <mxCell id="5PHVH8C7VnvAZDS9d-Uz-23" value="伴随矩阵法A&lt;sup&gt;-1&lt;/sup&gt;=A&lt;sup&gt;*&lt;/sup&gt;➗|A|" style="html=1;" parent="1" vertex="1">
          <mxGeometry x="20" y="685" width="150" height="50" as="geometry" />
        </mxCell>
        <mxCell id="5PHVH8C7VnvAZDS9d-Uz-26" value="逆矩阵计算" style="html=1;fillColor=#f8cecc;strokeColor=#b85450;" parent="1" vertex="1">
          <mxGeometry x="40" y="780" width="110" height="50" as="geometry" />
        </mxCell>
        <mxCell id="5PHVH8C7VnvAZDS9d-Uz-32" style="edgeStyle=orthogonalEdgeStyle;rounded=0;orthogonalLoop=1;jettySize=auto;html=1;entryX=0.5;entryY=1;entryDx=0;entryDy=0;" parent="1" source="5PHVH8C7VnvAZDS9d-Uz-31" target="5PHVH8C7VnvAZDS9d-Uz-26" edge="1">
          <mxGeometry relative="1" as="geometry" />
        </mxCell>
        <mxCell id="5PHVH8C7VnvAZDS9d-Uz-31" value="矩阵方程X=A&lt;sup&gt;-1&lt;/sup&gt;B" style="html=1;" parent="1" vertex="1">
          <mxGeometry x="40" y="890" width="110" height="50" as="geometry" />
        </mxCell>
        <mxCell id="5PHVH8C7VnvAZDS9d-Uz-34" style="edgeStyle=orthogonalEdgeStyle;rounded=0;orthogonalLoop=1;jettySize=auto;html=1;entryX=1;entryY=0.5;entryDx=0;entryDy=0;" parent="1" source="5PHVH8C7VnvAZDS9d-Uz-33" target="5PHVH8C7VnvAZDS9d-Uz-12" edge="1">
          <mxGeometry relative="1" as="geometry">
            <Array as="points">
              <mxPoint x="700" y="375" />
            </Array>
          </mxGeometry>
        </mxCell>
        <mxCell id="5PHVH8C7VnvAZDS9d-Uz-35" style="edgeStyle=orthogonalEdgeStyle;rounded=0;orthogonalLoop=1;jettySize=auto;html=1;entryX=0.5;entryY=1;entryDx=0;entryDy=0;" parent="1" source="5PHVH8C7VnvAZDS9d-Uz-33" target="5PHVH8C7VnvAZDS9d-Uz-15" edge="1">
          <mxGeometry relative="1" as="geometry">
            <Array as="points">
              <mxPoint x="735" y="340" />
              <mxPoint x="645" y="340" />
            </Array>
          </mxGeometry>
        </mxCell>
        <mxCell id="5PHVH8C7VnvAZDS9d-Uz-45" style="edgeStyle=orthogonalEdgeStyle;rounded=0;orthogonalLoop=1;jettySize=auto;html=1;entryX=1;entryY=0.5;entryDx=0;entryDy=0;" parent="1" source="5PHVH8C7VnvAZDS9d-Uz-33" target="5PHVH8C7VnvAZDS9d-Uz-6" edge="1">
          <mxGeometry relative="1" as="geometry" />
        </mxCell>
        <mxCell id="5PHVH8C7VnvAZDS9d-Uz-33" value="行列式的计算" style="html=1;" parent="1" vertex="1">
          <mxGeometry x="680" y="440" width="110" height="50" as="geometry" />
        </mxCell>
        <mxCell id="5PHVH8C7VnvAZDS9d-Uz-37" style="edgeStyle=orthogonalEdgeStyle;rounded=0;orthogonalLoop=1;jettySize=auto;html=1;entryX=0.5;entryY=1;entryDx=0;entryDy=0;" parent="1" source="5PHVH8C7VnvAZDS9d-Uz-36" target="5PHVH8C7VnvAZDS9d-Uz-17" edge="1">
          <mxGeometry relative="1" as="geometry" />
        </mxCell>
        <mxCell id="5PHVH8C7VnvAZDS9d-Uz-38" style="edgeStyle=orthogonalEdgeStyle;rounded=0;orthogonalLoop=1;jettySize=auto;html=1;exitX=0.5;exitY=1;exitDx=0;exitDy=0;entryX=1;entryY=0.25;entryDx=0;entryDy=0;" parent="1" source="5PHVH8C7VnvAZDS9d-Uz-36" target="5PHVH8C7VnvAZDS9d-Uz-26" edge="1">
          <mxGeometry relative="1" as="geometry">
            <mxPoint x="335" y="650" as="sourcePoint" />
            <Array as="points">
              <mxPoint x="335" y="793" />
            </Array>
          </mxGeometry>
        </mxCell>
        <mxCell id="5PHVH8C7VnvAZDS9d-Uz-36" value="线性方程组求解" style="html=1;" parent="1" vertex="1">
          <mxGeometry x="280" y="585" width="110" height="50" as="geometry" />
        </mxCell>
        <mxCell id="5PHVH8C7VnvAZDS9d-Uz-43" style="edgeStyle=orthogonalEdgeStyle;rounded=0;orthogonalLoop=1;jettySize=auto;html=1;" parent="1" source="5PHVH8C7VnvAZDS9d-Uz-41" target="5PHVH8C7VnvAZDS9d-Uz-6" edge="1">
          <mxGeometry relative="1" as="geometry" />
        </mxCell>
        <mxCell id="5PHVH8C7VnvAZDS9d-Uz-41" value="伴随矩阵:A&lt;sup&gt;* &lt;/sup&gt;=&lt;sup&gt;&amp;nbsp;&lt;/sup&gt;&lt;br&gt;|A|的所有代数余子式" style="html=1;align=center;" parent="1" vertex="1">
          <mxGeometry y="570" width="190" height="50" as="geometry" />
        </mxCell>
        <mxCell id="mByM-L_YtEdj-Pzh2EhQ-11" style="edgeStyle=orthogonalEdgeStyle;rounded=0;orthogonalLoop=1;jettySize=auto;html=1;" edge="1" parent="1" source="5PHVH8C7VnvAZDS9d-Uz-46" target="mByM-L_YtEdj-Pzh2EhQ-6">
          <mxGeometry relative="1" as="geometry">
            <Array as="points">
              <mxPoint x="-230" y="710" />
            </Array>
          </mxGeometry>
        </mxCell>
        <mxCell id="5PHVH8C7VnvAZDS9d-Uz-46" value="初等变换" style="html=1;align=center;" parent="1" vertex="1">
          <mxGeometry x="-175" y="685" width="110" height="50" as="geometry" />
        </mxCell>
        <mxCell id="5PHVH8C7VnvAZDS9d-Uz-50" style="edgeStyle=orthogonalEdgeStyle;rounded=0;orthogonalLoop=1;jettySize=auto;html=1;entryX=0;entryY=0.5;entryDx=0;entryDy=0;" parent="1" source="5PHVH8C7VnvAZDS9d-Uz-48" target="5PHVH8C7VnvAZDS9d-Uz-26" edge="1">
          <mxGeometry relative="1" as="geometry" />
        </mxCell>
        <mxCell id="mByM-L_YtEdj-Pzh2EhQ-9" style="edgeStyle=orthogonalEdgeStyle;rounded=0;orthogonalLoop=1;jettySize=auto;html=1;entryX=0.5;entryY=1;entryDx=0;entryDy=0;" edge="1" parent="1" source="5PHVH8C7VnvAZDS9d-Uz-48" target="5PHVH8C7VnvAZDS9d-Uz-46">
          <mxGeometry relative="1" as="geometry" />
        </mxCell>
        <mxCell id="5PHVH8C7VnvAZDS9d-Uz-48" value="初等变换法:(A,B)-&amp;gt;(E,A&lt;sup&gt;-1&lt;/sup&gt;B)" style="html=1;align=center;" parent="1" vertex="1">
          <mxGeometry x="-220" y="890" width="200" height="50" as="geometry" />
        </mxCell>
        <mxCell id="mByM-L_YtEdj-Pzh2EhQ-39" style="edgeStyle=orthogonalEdgeStyle;rounded=0;orthogonalLoop=1;jettySize=auto;html=1;" edge="1" parent="1" source="mByM-L_YtEdj-Pzh2EhQ-2" target="mByM-L_YtEdj-Pzh2EhQ-6">
          <mxGeometry relative="1" as="geometry" />
        </mxCell>
        <mxCell id="mByM-L_YtEdj-Pzh2EhQ-2" value="秩" style="rounded=0;whiteSpace=wrap;html=1;" vertex="1" parent="1">
          <mxGeometry x="-290" y="1050" width="120" height="60" as="geometry" />
        </mxCell>
        <mxCell id="mByM-L_YtEdj-Pzh2EhQ-36" style="edgeStyle=orthogonalEdgeStyle;rounded=0;orthogonalLoop=1;jettySize=auto;html=1;entryX=0.75;entryY=0;entryDx=0;entryDy=0;" edge="1" parent="1" source="mByM-L_YtEdj-Pzh2EhQ-3" target="mByM-L_YtEdj-Pzh2EhQ-30">
          <mxGeometry relative="1" as="geometry" />
        </mxCell>
        <mxCell id="mByM-L_YtEdj-Pzh2EhQ-3" value="正交" style="rounded=0;whiteSpace=wrap;html=1;" vertex="1" parent="1">
          <mxGeometry x="-160" y="1380" width="120" height="60" as="geometry" />
        </mxCell>
        <mxCell id="mByM-L_YtEdj-Pzh2EhQ-5" style="edgeStyle=orthogonalEdgeStyle;rounded=0;orthogonalLoop=1;jettySize=auto;html=1;" edge="1" parent="1" source="mByM-L_YtEdj-Pzh2EhQ-4" target="mByM-L_YtEdj-Pzh2EhQ-3">
          <mxGeometry relative="1" as="geometry" />
        </mxCell>
        <mxCell id="mByM-L_YtEdj-Pzh2EhQ-4" value="标准正交" style="rounded=0;whiteSpace=wrap;html=1;" vertex="1" parent="1">
          <mxGeometry x="15" y="1380" width="120" height="60" as="geometry" />
        </mxCell>
        <mxCell id="mByM-L_YtEdj-Pzh2EhQ-6" value="行阶梯形矩阵" style="rounded=0;whiteSpace=wrap;html=1;fillColor=#f8cecc;strokeColor=#b85450;" vertex="1" parent="1">
          <mxGeometry x="-290" y="775" width="120" height="60" as="geometry" />
        </mxCell>
        <mxCell id="mByM-L_YtEdj-Pzh2EhQ-13" style="edgeStyle=orthogonalEdgeStyle;rounded=0;orthogonalLoop=1;jettySize=auto;html=1;entryX=0;entryY=0.5;entryDx=0;entryDy=0;" edge="1" parent="1" source="mByM-L_YtEdj-Pzh2EhQ-12" target="mByM-L_YtEdj-Pzh2EhQ-6">
          <mxGeometry relative="1" as="geometry" />
        </mxCell>
        <mxCell id="mByM-L_YtEdj-Pzh2EhQ-12" value="行最简形矩阵" style="rounded=0;whiteSpace=wrap;html=1;" vertex="1" parent="1">
          <mxGeometry x="-390" y="870" width="120" height="60" as="geometry" />
        </mxCell>
        <mxCell id="mByM-L_YtEdj-Pzh2EhQ-29" style="edgeStyle=orthogonalEdgeStyle;rounded=0;orthogonalLoop=1;jettySize=auto;html=1;entryX=1;entryY=0.5;entryDx=0;entryDy=0;" edge="1" parent="1" source="mByM-L_YtEdj-Pzh2EhQ-15" target="5PHVH8C7VnvAZDS9d-Uz-26">
          <mxGeometry relative="1" as="geometry" />
        </mxCell>
        <mxCell id="mByM-L_YtEdj-Pzh2EhQ-15" value="矩阵分解" style="rounded=0;whiteSpace=wrap;html=1;align=center;" vertex="1" parent="1">
          <mxGeometry x="390" y="775" width="120" height="60" as="geometry" />
        </mxCell>
        <mxCell id="mByM-L_YtEdj-Pzh2EhQ-32" style="edgeStyle=orthogonalEdgeStyle;rounded=0;orthogonalLoop=1;jettySize=auto;html=1;entryX=1;entryY=0.5;entryDx=0;entryDy=0;" edge="1" parent="1" source="mByM-L_YtEdj-Pzh2EhQ-16" target="mByM-L_YtEdj-Pzh2EhQ-33">
          <mxGeometry relative="1" as="geometry" />
        </mxCell>
        <mxCell id="mByM-L_YtEdj-Pzh2EhQ-16" value="线性相关" style="rounded=0;whiteSpace=wrap;html=1;align=center;" vertex="1" parent="1">
          <mxGeometry x="390" y="940" width="120" height="60" as="geometry" />
        </mxCell>
        <mxCell id="mByM-L_YtEdj-Pzh2EhQ-26" style="edgeStyle=orthogonalEdgeStyle;rounded=0;orthogonalLoop=1;jettySize=auto;html=1;entryX=0.5;entryY=0;entryDx=0;entryDy=0;" edge="1" parent="1" source="mByM-L_YtEdj-Pzh2EhQ-17" target="mByM-L_YtEdj-Pzh2EhQ-15">
          <mxGeometry relative="1" as="geometry" />
        </mxCell>
        <mxCell id="mByM-L_YtEdj-Pzh2EhQ-17" value="特征分解" style="rounded=0;whiteSpace=wrap;html=1;align=center;" vertex="1" parent="1">
          <mxGeometry x="630" y="690" width="120" height="60" as="geometry" />
        </mxCell>
        <mxCell id="mByM-L_YtEdj-Pzh2EhQ-25" style="edgeStyle=orthogonalEdgeStyle;rounded=0;orthogonalLoop=1;jettySize=auto;html=1;entryX=0.5;entryY=1;entryDx=0;entryDy=0;" edge="1" parent="1" source="mByM-L_YtEdj-Pzh2EhQ-18" target="mByM-L_YtEdj-Pzh2EhQ-15">
          <mxGeometry relative="1" as="geometry">
            <Array as="points">
              <mxPoint x="450" y="870" />
            </Array>
          </mxGeometry>
        </mxCell>
        <mxCell id="mByM-L_YtEdj-Pzh2EhQ-35" style="edgeStyle=orthogonalEdgeStyle;rounded=0;orthogonalLoop=1;jettySize=auto;html=1;entryX=1;entryY=0.5;entryDx=0;entryDy=0;" edge="1" parent="1" source="mByM-L_YtEdj-Pzh2EhQ-18" target="mByM-L_YtEdj-Pzh2EhQ-16">
          <mxGeometry relative="1" as="geometry">
            <Array as="points">
              <mxPoint x="570" y="890" />
              <mxPoint x="570" y="970" />
            </Array>
          </mxGeometry>
        </mxCell>
        <mxCell id="mByM-L_YtEdj-Pzh2EhQ-18" value="奇异分解" style="rounded=0;whiteSpace=wrap;html=1;align=center;" vertex="1" parent="1">
          <mxGeometry x="630" y="840" width="120" height="60" as="geometry" />
        </mxCell>
        <mxCell id="mByM-L_YtEdj-Pzh2EhQ-20" value="向量" style="rounded=0;whiteSpace=wrap;html=1;align=center;" vertex="1" parent="1">
          <mxGeometry x="-360" y="1410" width="120" height="60" as="geometry" />
        </mxCell>
        <mxCell id="mByM-L_YtEdj-Pzh2EhQ-23" style="edgeStyle=orthogonalEdgeStyle;rounded=0;orthogonalLoop=1;jettySize=auto;html=1;entryX=1;entryY=0.5;entryDx=0;entryDy=0;" edge="1" parent="1" source="mByM-L_YtEdj-Pzh2EhQ-21" target="mByM-L_YtEdj-Pzh2EhQ-30">
          <mxGeometry relative="1" as="geometry" />
        </mxCell>
        <mxCell id="mByM-L_YtEdj-Pzh2EhQ-21" value="范数" style="rounded=0;whiteSpace=wrap;html=1;align=center;" vertex="1" parent="1">
          <mxGeometry x="140" y="1490" width="120" height="60" as="geometry" />
        </mxCell>
        <mxCell id="mByM-L_YtEdj-Pzh2EhQ-28" style="edgeStyle=orthogonalEdgeStyle;rounded=0;orthogonalLoop=1;jettySize=auto;html=1;entryX=0.5;entryY=1;entryDx=0;entryDy=0;" edge="1" parent="1" source="mByM-L_YtEdj-Pzh2EhQ-27" target="mByM-L_YtEdj-Pzh2EhQ-18">
          <mxGeometry relative="1" as="geometry" />
        </mxCell>
        <mxCell id="mByM-L_YtEdj-Pzh2EhQ-27" value="主成分分析" style="rounded=0;whiteSpace=wrap;html=1;align=center;" vertex="1" parent="1">
          <mxGeometry x="630" y="970" width="120" height="60" as="geometry" />
        </mxCell>
        <mxCell id="mByM-L_YtEdj-Pzh2EhQ-31" style="edgeStyle=orthogonalEdgeStyle;rounded=0;orthogonalLoop=1;jettySize=auto;html=1;" edge="1" parent="1" source="mByM-L_YtEdj-Pzh2EhQ-30" target="mByM-L_YtEdj-Pzh2EhQ-20">
          <mxGeometry relative="1" as="geometry" />
        </mxCell>
        <mxCell id="mByM-L_YtEdj-Pzh2EhQ-30" value="点积" style="rounded=0;whiteSpace=wrap;html=1;align=center;" vertex="1" parent="1">
          <mxGeometry x="-240" y="1540" width="120" height="60" as="geometry" />
        </mxCell>
        <mxCell id="mByM-L_YtEdj-Pzh2EhQ-34" style="edgeStyle=orthogonalEdgeStyle;rounded=0;orthogonalLoop=1;jettySize=auto;html=1;" edge="1" parent="1" source="mByM-L_YtEdj-Pzh2EhQ-33" target="5PHVH8C7VnvAZDS9d-Uz-31">
          <mxGeometry relative="1" as="geometry" />
        </mxCell>
        <mxCell id="mByM-L_YtEdj-Pzh2EhQ-33" value="生成子空间" style="rounded=0;whiteSpace=wrap;html=1;align=center;" vertex="1" parent="1">
          <mxGeometry x="35" y="990" width="120" height="60" as="geometry" />
        </mxCell>
        <mxCell id="mByM-L_YtEdj-Pzh2EhQ-38" style="edgeStyle=orthogonalEdgeStyle;rounded=0;orthogonalLoop=1;jettySize=auto;html=1;" edge="1" parent="1" source="mByM-L_YtEdj-Pzh2EhQ-37" target="mByM-L_YtEdj-Pzh2EhQ-3">
          <mxGeometry relative="1" as="geometry" />
        </mxCell>
        <mxCell id="mByM-L_YtEdj-Pzh2EhQ-37" value="矩阵正交" style="rounded=0;whiteSpace=wrap;html=1;align=center;" vertex="1" parent="1">
          <mxGeometry x="-160" y="1190" width="120" height="60" as="geometry" />
        </mxCell>
        <mxCell id="mByM-L_YtEdj-Pzh2EhQ-40" value="线性变换" style="rounded=0;whiteSpace=wrap;html=1;align=center;" vertex="1" parent="1">
          <mxGeometry x="-320" y="565" width="120" height="60" as="geometry" />
        </mxCell>
        <mxCell id="mByM-L_YtEdj-Pzh2EhQ-44" style="edgeStyle=orthogonalEdgeStyle;rounded=0;orthogonalLoop=1;jettySize=auto;html=1;entryX=0.5;entryY=1;entryDx=0;entryDy=0;" edge="1" parent="1" source="mByM-L_YtEdj-Pzh2EhQ-43" target="mByM-L_YtEdj-Pzh2EhQ-12">
          <mxGeometry relative="1" as="geometry" />
        </mxCell>
        <mxCell id="mByM-L_YtEdj-Pzh2EhQ-43" value="&lt;span&gt;矩阵的&lt;/span&gt;&lt;span&gt;标准形&lt;/span&gt;" style="rounded=0;whiteSpace=wrap;html=1;align=center;" vertex="1" parent="1">
          <mxGeometry x="-390" y="980" width="120" height="60" as="geometry" />
        </mxCell>
      </root>
    </mxGraphModel>
  </diagram>
</mxfile>
